<svg width="200px"  height="200px"  xmlns="http://www.w3.org/2000/svg" viewBox="0 0 100 100" preserveAspectRatio="xMidYMid" class="lds-colorbar" style="background: rgb(38, 38, 38);">
    <defs>
      <clipPath ng-attr-id="{{config.cpid}}" x="0" y="0" width="100" height="100" id="lds-colorbar-cpid-4c27f769729ff">
        <path d="M81.3,58.7H18.7c-4.8,0-8.7-3.9-8.7-8.7v0c0-4.8,3.9-8.7,8.7-8.7h62.7c4.8,0,8.7,3.9,8.7,8.7v0C90,54.8,86.1,58.7,81.3,58.7z"></path>
      </clipPath>
    </defs>
    <path fill="none" ng-attr-stroke="{{config.cf}}" stroke-width="2.7928" d="M82,63H18c-7.2,0-13-5.8-13-13v0c0-7.2,5.8-13,13-13h64c7.2,0,13,5.8,13,13v0C95,57.2,89.2,63,82,63z" stroke="#51CACC"></path>
    <g ng-attr-clip-path="url(#{{config.cpid}})" clip-path="url(#lds-colorbar-cpid-4c27f769729ff)">
      <g transform="translate(80 0)">
        <rect x="-100" y="0" width="25" height="100" ng-attr-fill="{{config.c1}}" fill="#9df871"></rect>
        <rect x="-75" y="0" width="25" height="100" ng-attr-fill="{{config.c2}}" fill="#e0ff77"></rect>
        <rect x="-50" y="0" width="25" height="100" ng-attr-fill="{{config.c3}}" fill="#de9dd6"></rect>
        <rect x="-25" y="0" width="25" height="100" ng-attr-fill="{{config.c4}}" fill="#ff708e"></rect>
        <rect x="0" y="0" width="25" height="100" ng-attr-fill="{{config.c1}}" fill="#9df871"></rect>
        <rect x="25" y="0" width="25" height="100" ng-attr-fill="{{config.c2}}" fill="#e0ff77"></rect>
        <rect x="50" y="0" width="25" height="100" ng-attr-fill="{{config.c3}}" fill="#de9dd6"></rect>
        <rect x="75" y="0" width="25" height="100" ng-attr-fill="{{config.c4}}" fill="#ff708e"></rect>
        <animateTransform attributeName="transform" type="translate" calcMode="linear" values="0;100" keyTimes="0;1" dur="1s" begin="0s" repeatCount="indefinite"></animateTransform>
      </g>
    </g>
  </svg>